
<svg width="330" height="120" viewBox="0 0 330 120" fill="none" xmlns="http://www.w3.org/2000/svg">
  <path d="M92.122 49.21C92.3247 49.59 92.4387 49.932 92.464 50.236C92.5147 50.54 92.54 50.9833 92.54 51.566V72.656C92.54 74.404 92.0587 75.43 91.096 75.734C90.6147 75.886 90.0067 75.962 89.272 75.962C88.5373 75.962 87.9547 75.8987 87.524 75.772C87.0933 75.6453 86.764 75.4933 86.536 75.316C86.308 75.1387 86.1307 74.8853 86.004 74.556C85.8773 74.1253 85.814 73.4667 85.814 72.58V59.85C85.1807 60.6353 84.256 61.8893 83.04 63.612C81.824 65.3093 81.0513 66.3733 80.722 66.804C80.3927 67.2347 80.1647 67.5387 80.038 67.716C79.9113 67.868 79.5947 68.096 79.088 68.4C78.6067 68.6787 78.0747 68.818 77.492 68.818C76.9347 68.818 76.4153 68.6913 75.934 68.438C75.478 68.1593 75.1487 67.8933 74.946 67.64L74.642 67.222C74.1353 66.5887 73.1347 65.246 71.64 63.194C70.1453 61.1167 69.3347 60.002 69.208 59.85V72.656C69.208 73.2387 69.1827 73.682 69.132 73.986C69.1067 74.2647 68.9927 74.5813 68.79 74.936C68.41 75.62 67.422 75.962 65.826 75.962C64.2807 75.962 63.318 75.62 62.938 74.936C62.7353 74.5813 62.6087 74.252 62.558 73.948C62.5327 73.644 62.52 73.188 62.52 72.58V51.49C62.52 50.9073 62.5327 50.4767 62.558 50.198C62.6087 49.894 62.7353 49.552 62.938 49.172C63.318 48.5133 64.306 48.184 65.902 48.184C66.586 48.184 67.1687 48.2727 67.65 48.45C68.1567 48.602 68.486 48.7667 68.638 48.944L68.866 49.172L77.492 60.496C81.7987 54.796 84.674 51.034 86.118 49.21C86.5487 48.526 87.562 48.184 89.158 48.184C90.7793 48.184 91.7673 48.526 92.122 49.21ZM115.458 50.122L125.718 71.326C126.149 72.1873 126.364 72.8333 126.364 73.264C126.364 74.176 125.63 74.9993 124.16 75.734C123.299 76.1647 122.615 76.38 122.108 76.38C121.627 76.38 121.222 76.266 120.892 76.038C120.588 75.81 120.36 75.5693 120.208 75.316C120.082 75.0627 119.892 74.6827 119.638 74.176L117.662 70.072H107.136L105.16 74.176C104.907 74.6827 104.704 75.05 104.552 75.278C104.426 75.506 104.198 75.7467 103.868 76C103.564 76.228 103.159 76.342 102.652 76.342C102.171 76.342 101.5 76.1267 100.638 75.696C99.1691 74.9867 98.4345 74.176 98.4345 73.264C98.4345 72.8333 98.6498 72.1873 99.0805 71.326L109.34 50.084C109.619 49.5013 110.037 49.0327 110.594 48.678C111.177 48.3233 111.785 48.146 112.418 48.146C113.786 48.146 114.8 48.8047 115.458 50.122ZM112.38 59.242L109.872 64.448H114.926L112.38 59.242ZM153.559 71.288C153.939 72.2 154.129 72.8587 154.129 73.264C154.129 74.2267 153.344 75.0373 151.773 75.696C150.962 76.0507 150.304 76.228 149.797 76.228C149.316 76.228 148.91 76.114 148.581 75.886C148.277 75.6327 148.049 75.3793 147.897 75.126C147.644 74.6447 146.656 72.352 144.933 68.248L143.755 68.324H138.967V72.618C138.967 73.2007 138.942 73.644 138.891 73.948C138.866 74.2267 138.752 74.556 138.549 74.936C138.194 75.62 137.206 75.962 135.585 75.962C133.812 75.962 132.773 75.4933 132.469 74.556C132.317 74.1253 132.241 73.4667 132.241 72.58V51.49C132.241 50.9073 132.254 50.4767 132.279 50.198C132.33 49.894 132.456 49.552 132.659 49.172C133.014 48.488 134.002 48.146 135.623 48.146H143.831C146.06 48.146 148.226 48.9567 150.329 50.578C151.342 51.3633 152.178 52.4273 152.837 53.77C153.496 55.1127 153.825 56.6073 153.825 58.254C153.825 61.1167 152.875 63.4727 150.975 65.322C151.532 66.6647 152.394 68.6533 153.559 71.288ZM138.967 61.598H143.831C144.566 61.598 145.3 61.3193 146.035 60.762C146.77 60.2047 147.137 59.3687 147.137 58.254C147.137 57.1393 146.77 56.3033 146.035 55.746C145.3 55.1633 144.54 54.872 143.755 54.872H138.967V61.598ZM171.946 62.016C175.822 65.74 178.57 68.5393 180.192 70.414C181.028 71.3513 181.446 72.1493 181.446 72.808C181.446 73.4413 180.939 74.2013 179.926 75.088C178.912 75.9493 178.076 76.38 177.418 76.38C176.784 76.38 176.012 75.848 175.1 74.784L166.74 65.246V72.656C166.74 73.264 166.714 73.7073 166.664 73.986C166.638 74.2647 166.524 74.594 166.322 74.974C165.967 75.658 164.979 76 163.358 76C161.584 76 160.546 75.5187 160.242 74.556C160.09 74.1507 160.014 73.5047 160.014 72.618V51.49C160.014 50.9073 160.026 50.4767 160.052 50.198C160.102 49.894 160.229 49.552 160.432 49.172C160.786 48.488 161.774 48.146 163.396 48.146C165.169 48.146 166.22 48.6147 166.55 49.552C166.676 49.9827 166.74 50.6413 166.74 51.528V58.786C170.185 54.91 172.972 51.7307 175.1 49.248C175.986 48.2093 176.759 47.69 177.418 47.69C178.076 47.69 178.912 48.1333 179.926 49.02C180.939 49.8813 181.446 50.6413 181.446 51.3C181.446 51.9333 181.066 52.6933 180.306 53.58C178.836 55.2773 176.556 57.608 173.466 60.572L171.946 62.016ZM194.809 69.274H206.513C207.096 69.274 207.527 69.2993 207.805 69.35C208.109 69.3753 208.451 69.4893 208.831 69.692C209.515 70.0467 209.857 71.0347 209.857 72.656C209.857 74.4293 209.389 75.468 208.451 75.772C208.021 75.924 207.362 76 206.475 76H191.427C189.654 76 188.615 75.5187 188.311 74.556C188.159 74.1507 188.083 73.5047 188.083 72.618V51.49C188.083 50.198 188.324 49.324 188.805 48.868C189.287 48.3867 190.199 48.146 191.541 48.146H206.513C207.096 48.146 207.527 48.1713 207.805 48.222C208.109 48.2473 208.451 48.3613 208.831 48.564C209.515 48.9187 209.857 49.9067 209.857 51.528C209.857 53.3013 209.389 54.34 208.451 54.644C208.021 54.796 207.362 54.872 206.475 54.872H194.809V58.71H202.333C202.916 58.71 203.347 58.7353 203.625 58.786C203.929 58.8113 204.271 58.9253 204.651 59.128C205.335 59.4827 205.677 60.4707 205.677 62.092C205.677 63.8653 205.196 64.904 204.233 65.208C203.803 65.36 203.144 65.436 202.257 65.436H194.809V69.274ZM217.94 48.108H239.068C239.878 48.108 240.474 48.2093 240.854 48.412C241.234 48.5893 241.487 48.8807 241.614 49.286C241.74 49.6913 241.804 50.2233 241.804 50.882C241.804 51.5407 241.74 52.0727 241.614 52.478C241.487 52.858 241.272 53.124 240.968 53.276C240.512 53.504 239.866 53.618 239.03 53.618H231.772V72.732C231.772 73.3147 231.746 73.7453 231.696 74.024C231.67 74.3027 231.556 74.632 231.354 75.012C231.176 75.3667 230.847 75.62 230.366 75.772C229.884 75.924 229.251 76 228.466 76C227.68 76 227.047 75.924 226.566 75.772C226.11 75.62 225.78 75.3667 225.578 75.012C225.4 74.632 225.286 74.3027 225.236 74.024C225.21 73.72 225.198 73.2767 225.198 72.694V53.618H217.902C217.091 53.618 216.496 53.5293 216.116 53.352C215.736 53.1493 215.482 52.8453 215.356 52.44C215.229 52.0347 215.166 51.5027 215.166 50.844C215.166 50.1853 215.229 49.666 215.356 49.286C215.482 48.8807 215.698 48.602 216.002 48.45C216.458 48.222 217.104 48.108 217.94 48.108ZM262.851 68.704L263.535 68.21C264.396 67.7033 265.004 67.45 265.359 67.45C266.144 67.45 266.993 68.1593 267.905 69.578C268.462 70.4647 268.741 71.174 268.741 71.706C268.741 72.238 268.564 72.6813 268.209 73.036C267.88 73.3907 267.487 73.7073 267.031 73.986C266.575 74.2647 266.132 74.5307 265.701 74.784C265.296 75.0373 264.447 75.3667 263.155 75.772C261.863 76.1773 260.609 76.38 259.393 76.38C258.202 76.38 256.986 76.228 255.745 75.924C254.529 75.5947 253.262 75.0627 251.945 74.328C250.653 73.568 249.488 72.656 248.449 71.592C247.41 70.5027 246.549 69.122 245.865 67.45C245.206 65.7527 244.877 63.916 244.877 61.94C244.877 59.964 245.206 58.178 245.865 56.582C246.524 54.9607 247.36 53.6307 248.373 52.592C249.412 51.528 250.59 50.6413 251.907 49.932C254.39 48.564 256.885 47.88 259.393 47.88C260.584 47.88 261.787 48.07 263.003 48.45C264.244 48.8047 265.182 49.172 265.815 49.552L266.727 50.084C267.183 50.3627 267.538 50.5907 267.791 50.768C268.45 51.3 268.779 51.908 268.779 52.592C268.779 53.2507 268.513 53.9473 267.981 54.682C266.993 56.05 266.106 56.734 265.321 56.734C264.865 56.734 264.219 56.4553 263.383 55.898C262.319 55.0367 260.9 54.606 259.127 54.606C257.48 54.606 255.859 55.176 254.263 56.316C253.503 56.8733 252.87 57.6587 252.363 58.672C251.856 59.6853 251.603 60.838 251.603 62.13C251.603 63.3967 251.856 64.5367 252.363 65.55C252.87 66.5633 253.516 67.3613 254.301 67.944C255.846 69.0587 257.455 69.616 259.127 69.616C259.912 69.616 260.647 69.5147 261.331 69.312C262.04 69.1093 262.547 68.9067 262.851 68.704ZM290.37 50.122L300.63 71.326C301.06 72.1873 301.276 72.8333 301.276 73.264C301.276 74.176 300.541 74.9993 299.072 75.734C298.21 76.1647 297.526 76.38 297.02 76.38C296.538 76.38 296.133 76.266 295.804 76.038C295.5 75.81 295.272 75.5693 295.12 75.316C294.993 75.0627 294.803 74.6827 294.55 74.176L292.574 70.072H282.048L280.072 74.176C279.818 74.6827 279.616 75.05 279.464 75.278C279.337 75.506 279.109 75.7467 278.78 76C278.476 76.228 278.07 76.342 277.564 76.342C277.082 76.342 276.411 76.1267 275.55 75.696C274.08 74.9867 273.346 74.176 273.346 73.264C273.346 72.8333 273.561 72.1873 273.992 71.326L284.252 50.084C284.53 49.5013 284.948 49.0327 285.506 48.678C286.088 48.3233 286.696 48.146 287.33 48.146C288.698 48.146 289.711 48.8047 290.37 50.122ZM287.292 59.242L284.784 64.448H289.838L287.292 59.242ZM327.71 53.77C328.369 55.1127 328.698 56.6073 328.698 58.254C328.698 59.9007 328.369 61.3953 327.71 62.738C327.052 64.0553 326.203 65.1067 325.164 65.892C323.062 67.5133 320.883 68.324 318.628 68.324H313.878V72.618C313.878 73.2007 313.853 73.644 313.802 73.948C313.777 74.2267 313.663 74.556 313.46 74.936C313.106 75.62 312.118 75.962 310.496 75.962C308.723 75.962 307.684 75.4933 307.38 74.556C307.228 74.1253 307.152 73.4667 307.152 72.58V51.49C307.152 50.9073 307.165 50.4767 307.19 50.198C307.241 49.894 307.368 49.552 307.57 49.172C307.925 48.488 308.913 48.146 310.534 48.146H318.666C320.896 48.146 323.062 48.9567 325.164 50.578C326.203 51.3633 327.052 52.4273 327.71 53.77ZM318.666 61.598C319.426 61.598 320.174 61.3193 320.908 60.762C321.643 60.2047 322.01 59.3687 322.01 58.254C322.01 57.1393 321.643 56.3033 320.908 55.746C320.174 55.1633 319.414 54.872 318.628 54.872H313.878V61.598H318.666Z" fill="#333333"/>
  <path d="M10.9635 60C10.9668 45.0257 16.6181 30.5938 26.8073 19.5394C36.9965 8.48501 50.9871 1.60721 66.0306 0.257129C64.215 0.0890061 62.3894 0 60.5239 0C52.5758 -1.17411e-07 44.7055 1.55195 37.3624 4.56723C30.0193 7.58251 23.3472 12.0021 17.727 17.5736C12.1069 23.1451 7.64872 29.7595 4.60711 37.039C1.5655 44.3185 0 52.1207 0 60C0 67.8793 1.5655 75.6815 4.60711 82.961C7.64872 90.2405 12.1069 96.8549 17.727 102.426C23.3472 107.998 30.0193 112.417 37.3624 115.433C44.7055 118.448 52.5758 120 60.5239 120C62.3894 120 64.215 119.911 66.0306 119.743C50.9854 118.397 36.9921 111.521 26.802 100.465C16.612 89.41 10.9622 74.9756 10.9635 60V60Z" fill="url(#paint0_linear_106_4)"/>
  <path d="M72.4151 84.0613C68.657 84.0691 64.9482 83.2127 61.5803 81.5595C58.2124 79.9062 55.2772 77.5011 53.0055 74.5332C50.7337 71.5653 49.1872 68.1155 48.4876 64.455C47.788 60.7945 47.9544 57.023 48.9736 53.437C49.9928 49.851 51.837 46.5482 54.3615 43.7882C56.8859 41.0282 60.0216 38.8862 63.5222 37.5306C67.0228 36.1751 70.7928 35.6428 74.5359 35.9758C78.279 36.3087 81.8933 37.4978 85.0945 39.4495C88.0963 41.3082 91.643 42.1085 95.1606 41.7209C98.6782 41.3332 101.961 39.7803 104.478 37.3133V37.3133C106.137 35.6756 107.402 33.6888 108.181 31.5001C108.96 29.3114 109.233 26.977 108.978 24.6699C108.723 22.3628 107.948 20.1421 106.709 18.1724C105.471 16.2027 103.801 14.5346 101.824 13.2916C92.7279 7.66299 82.1824 4.76529 71.4612 4.94839C60.74 5.1315 50.3014 8.38758 41.4061 14.3234C32.5108 20.2593 25.5392 28.6211 21.333 38.3992C17.1268 48.1772 15.8659 58.9533 17.7027 69.4261C19.5395 79.899 24.3953 89.6209 31.6838 97.4176C38.9724 105.214 48.3819 110.753 58.7762 113.364C69.1705 115.975 80.105 115.547 90.2594 112.132C100.414 108.717 109.354 102.461 116 94.119L115.611 93.7333C105.735 83.9525 91.4991 80.3626 77.9119 83.468C76.1082 83.8718 74.2641 84.0709 72.4151 84.0613V84.0613Z" fill="url(#paint1_linear_106_4)"/>
  <path style="mix-blend-mode:multiply" d="M101.824 13.2916C94.8615 8.98527 87.0225 6.26254 78.8712 5.31929C70.7199 4.37604 62.459 5.23574 54.683 7.83651C46.907 10.4373 39.8092 14.7145 33.9004 20.3603C27.9915 26.0061 23.4186 32.8802 20.5105 40.4879C33.4792 94.8805 77.9119 83.4679 77.9119 83.4679C74.0275 84.3621 69.9807 84.2949 66.1286 83.2722C62.2765 82.2496 58.7375 80.3028 55.8238 77.6038C52.91 74.9047 50.711 71.5363 49.4208 67.7956C48.1306 64.0549 47.7889 60.0569 48.4257 56.1543C49.0625 52.2518 50.6583 48.5645 53.0723 45.4178C55.4863 42.2712 58.6444 39.7618 62.2679 38.111C65.8915 36.4603 69.8691 35.7189 73.85 35.9524C77.8309 36.1858 81.6926 37.3868 85.0946 39.4495C88.0964 41.3082 91.6431 42.1085 95.1607 41.7209C98.6783 41.3332 101.961 39.7803 104.478 37.3133V37.3133C106.137 35.6756 107.403 33.6888 108.182 31.5001C108.961 29.3114 109.233 26.977 108.978 24.6699C108.723 22.3627 107.948 20.1421 106.709 18.1724C105.471 16.2027 103.801 14.5346 101.824 13.2916V13.2916Z" fill="url(#paint2_linear_106_4)"/>
  <defs>
    <linearGradient id="paint0_linear_106_4" x1="0" y1="60" x2="66.0306" y2="60" gradientUnits="userSpaceOnUse">
      <stop stop-color="#00C6FB"/>
      <stop offset="1" stop-color="#005BEA"/>
    </linearGradient>
    <linearGradient id="paint1_linear_106_4" x1="16.8818" y1="59.9954" x2="116" y2="59.9954" gradientUnits="userSpaceOnUse">
      <stop stop-color="#00C6FB"/>
      <stop offset="1" stop-color="#005BEA"/>
    </linearGradient>
    <linearGradient id="paint2_linear_106_4" x1="67.956" y1="0.13844" x2="62.3571" y2="60.6716" gradientUnits="userSpaceOnUse">
      <stop stop-color="white"/>
      <stop offset="1" stop-color="#DC2B68"/>
    </linearGradient>
  </defs>
</svg>
