<svg width="152" height="56" viewBox="0 0 152 56" fill="none" xmlns="http://www.w3.org/2000/svg">
<g clip-path="url(#clip0_6_465)">
<path d="M42.2229 23.0551C42.3158 23.2292 42.368 23.386 42.3796 23.5253C42.4028 23.6646 42.4144 23.8678 42.4144 24.1349V33.8011C42.4144 34.6023 42.1938 35.0726 41.7526 35.2119C41.532 35.2816 41.2533 35.3164 40.9166 35.3164C40.5799 35.3164 40.3128 35.2874 40.1154 35.2293C39.918 35.1712 39.7671 35.1016 39.6626 35.0203C39.5581 34.9391 39.4768 34.8229 39.4188 34.672C39.3607 34.4746 39.3317 34.1727 39.3317 33.7663V27.9317C39.0414 28.2917 38.6176 28.8664 38.0603 29.656C37.5029 30.4339 37.1488 30.9216 36.9979 31.119C36.8469 31.3164 36.7424 31.4557 36.6844 31.537C36.6263 31.6067 36.4812 31.7112 36.2489 31.8505C36.0283 31.9782 35.7845 32.0421 35.5174 32.0421C35.262 32.0421 35.024 31.984 34.8034 31.8679C34.5944 31.7402 34.4434 31.6182 34.3505 31.5021L34.2112 31.3106C33.979 31.0203 33.5203 30.4049 32.8353 29.4644C32.1502 28.5123 31.7787 28.0014 31.7206 27.9317V33.8011C31.7206 34.0682 31.709 34.2714 31.6858 34.4107C31.6742 34.5385 31.6219 34.6836 31.529 34.8461C31.3549 35.1596 30.902 35.3164 30.1705 35.3164C29.4623 35.3164 29.021 35.1596 28.8469 34.8461C28.754 34.6836 28.6959 34.5326 28.6727 34.3933C28.6611 34.254 28.6553 34.045 28.6553 33.7663V24.1001C28.6553 23.833 28.6611 23.6356 28.6727 23.5079C28.6959 23.3686 28.754 23.2118 28.8469 23.0376C29.021 22.7357 29.4739 22.5848 30.2054 22.5848C30.5189 22.5848 30.7859 22.6255 31.0065 22.7067C31.2388 22.7764 31.3897 22.8519 31.4594 22.9331L31.5639 23.0376L35.5174 28.2278C37.4913 25.6153 38.8092 23.8911 39.471 23.0551C39.6684 22.7416 40.1329 22.5848 40.8644 22.5848C41.6075 22.5848 42.0603 22.7416 42.2229 23.0551ZM52.9185 23.4731L57.621 33.1916C57.8186 33.5863 57.9171 33.8824 57.9171 34.0798C57.9171 34.4978 57.5807 34.8752 56.9069 35.2119C56.5123 35.4093 56.1988 35.508 55.9664 35.508C55.746 35.508 55.5604 35.4557 55.4091 35.3512C55.2698 35.2467 55.1653 35.1364 55.0956 35.0203C55.0379 34.9042 54.9508 34.7301 54.8344 34.4978L53.9287 32.6168H49.1043L48.1986 34.4978C48.0827 34.7301 47.9896 34.8984 47.9199 35.0029C47.8622 35.1074 47.7577 35.2177 47.6064 35.3338C47.4671 35.4383 47.2815 35.4906 47.0491 35.4906C46.8286 35.4906 46.5211 35.3919 46.126 35.1945C45.4528 34.8694 45.1161 34.4978 45.1161 34.0798C45.1161 33.8824 45.2148 33.5863 45.4122 33.1916L50.1144 23.4556C50.2423 23.1886 50.4339 22.9738 50.6892 22.8112C50.9564 22.6487 51.2351 22.5674 51.5252 22.5674C52.1522 22.5674 52.6169 22.8693 52.9185 23.4731ZM51.5078 27.6531L50.3583 30.0391H52.6747L51.5078 27.6531ZM70.3815 33.1742C70.5556 33.5922 70.6427 33.8941 70.6427 34.0798C70.6427 34.5211 70.2829 34.8926 69.5629 35.1945C69.1912 35.3571 68.8896 35.4383 68.6572 35.4383C68.4368 35.4383 68.2507 35.3861 68.0999 35.2816C67.9606 35.1655 67.8561 35.0493 67.7864 34.9332C67.6704 34.7126 67.2176 33.6618 66.4279 31.7808L65.888 31.8156H63.6935V33.7837C63.6935 34.0508 63.682 34.254 63.6586 34.3933C63.6472 34.5211 63.5949 34.672 63.5019 34.8461C63.3392 35.1596 62.8864 35.3164 62.1434 35.3164C61.3308 35.3164 60.8546 35.1016 60.7152 34.672C60.6456 34.4746 60.6107 34.1727 60.6107 33.7663V24.1001C60.6107 23.833 60.6167 23.6356 60.6282 23.5079C60.6515 23.3686 60.7093 23.2118 60.8023 23.0376C60.965 22.7241 61.4179 22.5674 62.1608 22.5674H65.9228C66.9444 22.5674 67.9372 22.939 68.9011 23.6821C69.3654 24.042 69.7485 24.5297 70.0506 25.1451C70.3526 25.7605 70.5034 26.4455 70.5034 27.2002C70.5034 28.5123 70.068 29.5921 69.1972 30.4397C69.4524 31.0551 69.8475 31.9666 70.3815 33.1742ZM63.6935 28.7329H65.9228C66.2597 28.7329 66.5961 28.6052 66.933 28.3497C67.2699 28.0943 67.4381 27.7111 67.4381 27.2002C67.4381 26.6893 67.2699 26.3062 66.933 26.0507C66.5961 25.7837 66.2478 25.6501 65.888 25.6501H63.6935V28.7329ZM78.8089 28.9245C80.5854 30.6313 81.8449 31.9143 82.5883 32.7736C82.9714 33.2032 83.163 33.5689 83.163 33.8708C83.163 34.1611 82.9306 34.5094 82.4664 34.9158C82.0016 35.3106 81.6184 35.508 81.3169 35.508C81.0263 35.508 80.6724 35.2641 80.2544 34.7765L76.4228 30.4049V33.8011C76.4228 34.0798 76.4109 34.283 76.3879 34.4107C76.376 34.5385 76.3238 34.6894 76.2312 34.8636C76.0685 35.1771 75.6157 35.3338 74.8727 35.3338C74.0596 35.3338 73.5839 35.1132 73.4445 34.672C73.3749 34.4862 73.34 34.1901 73.34 33.7837V24.1001C73.34 23.833 73.3455 23.6356 73.3574 23.5079C73.3804 23.3686 73.4386 23.2118 73.5316 23.0376C73.6939 22.7241 74.1467 22.5674 74.8901 22.5674C75.7027 22.5674 76.1844 22.7822 76.3357 23.2118C76.3934 23.4092 76.4228 23.7111 76.4228 24.1175V27.4441C78.0017 25.6676 79.2791 24.2104 80.2544 23.0725C80.6605 22.5964 81.0148 22.3584 81.3169 22.3584C81.6184 22.3584 82.0016 22.5616 82.4664 22.968C82.9306 23.3627 83.163 23.7111 83.163 24.013C83.163 24.3032 82.9889 24.6516 82.6405 25.058C81.9668 25.8359 80.9218 26.9041 79.5055 28.2626L78.8089 28.9245ZM89.2877 32.2511H94.6521C94.9193 32.2511 95.1168 32.2627 95.2442 32.2859C95.3836 32.2975 95.5403 32.3497 95.7145 32.4426C96.028 32.6052 96.1847 33.0581 96.1847 33.8011C96.1847 34.6139 95.9702 35.09 95.5403 35.2293C95.3432 35.299 95.0412 35.3338 94.6347 35.3338H87.7376C86.925 35.3338 86.4488 35.1132 86.3095 34.672C86.2398 34.4862 86.205 34.1901 86.205 33.7837V24.1001C86.205 23.5079 86.3154 23.1073 86.5359 22.8983C86.7568 22.6777 87.1748 22.5674 87.7899 22.5674H94.6521C94.9193 22.5674 95.1168 22.579 95.2442 22.6022C95.3836 22.6138 95.5403 22.6661 95.7145 22.759C96.028 22.9216 96.1847 23.3744 96.1847 24.1175C96.1847 24.9302 95.9702 25.4063 95.5403 25.5456C95.3432 25.6153 95.0412 25.6501 94.6347 25.6501H89.2877V27.4092H92.7362C93.0034 27.4092 93.201 27.4208 93.3284 27.4441C93.4677 27.4557 93.6245 27.5079 93.7986 27.6008C94.1122 27.7634 94.2689 28.2162 94.2689 28.9593C94.2689 29.7721 94.0484 30.2481 93.6071 30.3875C93.41 30.4571 93.1079 30.492 92.7014 30.492H89.2877V32.2511ZM99.8894 22.55H109.573C109.944 22.55 110.218 22.5964 110.392 22.6893C110.566 22.7706 110.682 22.9041 110.74 23.0899C110.798 23.2757 110.827 23.5195 110.827 23.8214C110.827 24.1233 110.798 24.3671 110.74 24.5529C110.682 24.7271 110.583 24.849 110.444 24.9186C110.235 25.0231 109.939 25.0754 109.556 25.0754H106.229V33.836C106.229 34.1031 106.217 34.3004 106.194 34.4282C106.182 34.5559 106.13 34.7068 106.038 34.881C105.956 35.0436 105.805 35.1597 105.585 35.2293C105.364 35.299 105.074 35.3338 104.714 35.3338C104.354 35.3338 104.063 35.299 103.843 35.2293C103.634 35.1597 103.483 35.0436 103.39 34.881C103.309 34.7068 103.256 34.5559 103.233 34.4282C103.222 34.2888 103.216 34.0856 103.216 33.8186V25.0754H99.872C99.5003 25.0754 99.2276 25.0347 99.0534 24.9535C98.8793 24.8606 98.7629 24.7212 98.7051 24.5355C98.6469 24.3497 98.618 24.1059 98.618 23.804C98.618 23.5021 98.6469 23.2641 98.7051 23.0899C98.7629 22.9041 98.8619 22.7764 99.0012 22.7067C99.2102 22.6022 99.5063 22.55 99.8894 22.55ZM120.474 31.9898L120.787 31.7634C121.182 31.5312 121.46 31.4151 121.623 31.4151C121.983 31.4151 122.372 31.7402 122.79 32.3904C123.045 32.7968 123.173 33.1219 123.173 33.3657C123.173 33.6096 123.092 33.8127 122.929 33.9753C122.779 34.1379 122.598 34.283 122.389 34.4107C122.18 34.5385 121.977 34.6604 121.78 34.7765C121.594 34.8926 121.205 35.0436 120.613 35.2293C120.021 35.4151 119.446 35.508 118.889 35.508C118.343 35.508 117.786 35.4383 117.217 35.299C116.659 35.1481 116.079 34.9042 115.475 34.5675C114.883 34.2192 114.349 33.8012 113.873 33.3135C113.397 32.8142 113.002 32.1814 112.688 31.4151C112.386 30.6371 112.236 29.7953 112.236 28.8896C112.236 27.984 112.386 27.1654 112.688 26.4339C112.99 25.6908 113.374 25.0812 113.838 24.6051C114.314 24.1175 114.854 23.7111 115.458 23.386C116.596 22.759 117.739 22.4455 118.889 22.4455C119.435 22.4455 119.986 22.5326 120.543 22.7067C121.112 22.8693 121.542 23.0376 121.832 23.2118L122.25 23.4556C122.459 23.5834 122.622 23.6879 122.738 23.7691C123.04 24.013 123.191 24.2916 123.191 24.6051C123.191 24.9071 123.069 25.2263 122.825 25.5631C122.372 26.1901 121.966 26.5036 121.606 26.5036C121.397 26.5036 121.101 26.3758 120.717 26.1204C120.23 25.7256 119.579 25.5282 118.767 25.5282C118.012 25.5282 117.269 25.7895 116.537 26.312C116.189 26.5674 115.899 26.9274 115.667 27.3918C115.434 27.8562 115.318 28.3846 115.318 28.9767C115.318 29.5573 115.434 30.0798 115.667 30.5442C115.899 31.0087 116.195 31.3744 116.555 31.6415C117.263 32.1524 118 32.4078 118.767 32.4078C119.127 32.4078 119.463 32.3614 119.777 32.2685C120.102 32.1756 120.334 32.0827 120.474 31.9898ZM133.087 23.4731L137.789 33.1916C137.986 33.5863 138.085 33.8824 138.085 34.0798C138.085 34.4978 137.748 34.8752 137.075 35.2119C136.68 35.4093 136.366 35.508 136.134 35.508C135.914 35.508 135.728 35.4557 135.577 35.3512C135.438 35.2467 135.333 35.1364 135.264 35.0203C135.205 34.9042 135.118 34.7301 135.002 34.4978L134.097 32.6168H129.272L128.367 34.4978C128.25 34.7301 128.158 34.8984 128.088 35.0029C128.03 35.1074 127.925 35.2177 127.774 35.3338C127.635 35.4383 127.449 35.4906 127.217 35.4906C126.996 35.4906 126.689 35.3919 126.294 35.1945C125.62 34.8694 125.284 34.4978 125.284 34.0798C125.284 33.8824 125.382 33.5863 125.58 33.1916L130.282 23.4556C130.41 23.1886 130.601 22.9738 130.857 22.8112C131.124 22.6487 131.403 22.5674 131.693 22.5674C132.32 22.5674 132.784 22.8693 133.087 23.4731ZM131.676 27.6531L130.526 30.0391H132.843L131.676 27.6531ZM150.201 25.1451C150.503 25.7605 150.654 26.4455 150.654 27.2002C150.654 27.955 150.503 28.64 150.201 29.2554C149.899 29.8592 149.51 30.3411 149.034 30.701C148.07 31.4441 147.072 31.8156 146.038 31.8156H143.861V33.7837C143.861 34.0508 143.85 34.254 143.826 34.3933C143.815 34.5211 143.762 34.672 143.669 34.8461C143.507 35.1596 143.054 35.3164 142.311 35.3164C141.498 35.3164 141.022 35.1016 140.883 34.672C140.813 34.4746 140.778 34.1727 140.778 33.7663V24.1001C140.778 23.833 140.784 23.6356 140.796 23.5079C140.819 23.3686 140.877 23.2118 140.97 23.0376C141.133 22.7241 141.585 22.5674 142.328 22.5674H146.056C147.078 22.5674 148.07 22.939 149.034 23.6821C149.51 24.042 149.899 24.5297 150.201 25.1451ZM146.056 28.7329C146.404 28.7329 146.747 28.6052 147.083 28.3497C147.42 28.0943 147.588 27.7111 147.588 27.2002C147.588 26.6893 147.42 26.3062 147.083 26.0507C146.747 25.7837 146.398 25.6501 146.038 25.6501H143.861V28.7329H146.056Z" fill="white"/>
<path d="M5.02494 28C5.02645 21.1368 7.61663 14.5222 12.2867 9.45556C16.9567 4.38896 23.3691 1.23664 30.264 0.617851C29.4319 0.540794 28.5951 0.5 27.7401 0.5C24.0972 0.5 20.49 1.21131 17.1244 2.59331C13.7588 3.97532 10.7008 6.00096 8.12488 8.55457C5.549 11.1082 3.50566 14.1398 2.11159 17.4762C0.717521 20.8126 0 24.3887 0 28C0 31.6113 0.717521 35.1874 2.11159 38.5238C3.50566 41.8602 5.549 44.8918 8.12488 47.4453C10.7008 49.9991 13.7588 52.0245 17.1244 53.4068C20.49 54.7887 24.0972 55.5 27.7401 55.5C28.5951 55.5 29.4319 55.4592 30.264 55.3822C23.3683 54.7653 16.9547 51.6138 12.2843 46.5465C7.61383 41.4796 5.02434 34.8638 5.02494 28Z" fill="url(#paint0_linear_6_465)"/>
<path d="M33.1901 39.0285C31.4676 39.0321 29.7677 38.6395 28.2241 37.8818C26.6805 37.1241 25.3352 36.0217 24.294 34.6614C23.2527 33.3011 22.5439 31.72 22.2233 30.0423C21.9026 28.3645 21.9789 26.6359 22.446 24.9923C22.9132 23.3488 23.7584 21.835 24.9155 20.57C26.0725 19.305 27.5097 18.3232 29.1141 17.7019C30.7186 17.0806 32.4465 16.8367 34.1621 16.9893C35.8777 17.1419 37.5342 17.6869 39.0014 18.5814C40.3773 19.4333 42.0028 19.8001 43.6151 19.6225C45.2273 19.4448 46.7319 18.733 47.8855 17.6023C48.6459 16.8517 49.2257 15.9411 49.5828 14.9379C49.9398 13.9348 50.0649 12.8648 49.948 11.8074C49.8312 10.75 49.476 9.73218 48.9081 8.8294C48.3407 7.92662 47.5753 7.16207 46.6691 6.59237C42.5001 4.01259 37.6667 2.68447 32.7528 2.76839C27.839 2.85232 23.0546 4.34469 18.9776 7.06527C14.9006 9.78589 11.7053 13.6184 9.77743 18.1C7.84958 22.5816 7.27167 27.5206 8.11354 32.3207C8.9554 37.1208 11.181 41.5766 14.5215 45.1501C17.8622 48.7235 22.1748 51.2622 26.9389 52.4589C31.7029 53.6556 36.7146 53.4594 41.3687 51.8942C46.0229 50.329 50.1204 47.4617 53.1665 43.6383L52.9882 43.4615C48.4617 38.9786 41.9369 37.3332 35.7094 38.7565C34.8827 38.9416 34.0375 39.0329 33.1901 39.0285Z" fill="url(#paint1_linear_6_465)"/>
<path style="mix-blend-mode:multiply" d="M46.6691 6.5917C43.4779 4.61796 39.8851 3.37005 36.149 2.93772C32.413 2.5054 28.6268 2.89943 25.0628 4.09145C21.4988 5.28348 18.2456 7.24386 15.5374 9.83152C12.8292 12.4192 10.7333 15.5698 9.40039 19.0567C15.3444 43.9866 35.7094 38.7558 35.7094 38.7558C33.929 39.1657 32.0742 39.1349 30.3087 38.6661C28.5431 38.1974 26.9211 37.3052 25.5857 36.0681C24.2502 34.831 23.2423 33.2872 22.6509 31.5727C22.0596 29.8582 21.903 28.0258 22.1949 26.2371C22.4867 24.4485 23.2181 22.7584 24.3245 21.3162C25.431 19.874 26.8784 18.7239 28.5392 17.9673C30.2 17.2107 32.0231 16.8709 33.8477 16.9779C35.6722 17.0849 37.4422 17.6353 39.0014 18.5807C40.3773 19.4326 42.0028 19.7994 43.6151 19.6218C45.2273 19.4441 46.7319 18.7324 47.8855 17.6016C48.6459 16.851 49.2261 15.9404 49.5832 14.9373C49.9402 13.9341 50.0649 12.8642 49.948 11.8068C49.8311 10.7493 49.4759 9.73151 48.908 8.82873C48.3406 7.92595 47.5752 7.16141 46.6691 6.5917Z" fill="url(#paint2_linear_6_465)"/>
</g>
<defs>
<linearGradient id="paint0_linear_6_465" x1="0" y1="28" x2="30.264" y2="28" gradientUnits="userSpaceOnUse">
<stop stop-color="#FFDA44"/>
<stop offset="1" stop-color="#FFDD2D"/>
</linearGradient>
<linearGradient id="paint1_linear_6_465" x1="7.73729" y1="27.9983" x2="53.1665" y2="27.9983" gradientUnits="userSpaceOnUse">
<stop stop-color="#FFDA44"/>
<stop offset="1" stop-color="#FFDA44"/>
</linearGradient>
<linearGradient id="paint2_linear_6_465" x1="31.1462" y1="0.563167" x2="28.5801" y2="28.3075" gradientUnits="userSpaceOnUse">
<stop stop-color="#FFDA44"/>
<stop offset="1" stop-color="#FFDD2D"/>
</linearGradient>
<clipPath id="clip0_6_465">
<rect width="151.25" height="55" fill="white" transform="translate(0 0.5)"/>
</clipPath>
</defs>
</svg>
